<?xml version="1.0" standalone="no"?>
<!DOCTYPE svg PUBLIC "-//W3C//DTD SVG 20010904//EN"
 "http://www.w3.org/TR/2001/REC-SVG-20010904/DTD/svg10.dtd">
<svg version="1.0" xmlns="http://www.w3.org/2000/svg"
 width="98.000000pt" height="98.000000pt" viewBox="0 0 98.000000 98.000000"
 preserveAspectRatio="xMidYMid meet">
<metadata>
Created by potrace 1.14, written by Peter Selinger 2001-2017
</metadata>
<g transform="translate(0.000000,98.000000) scale(0.100000,-0.100000)"
fill="#000000" stroke="none">
<path d="M52 828 c8 -13 99 -165 203 -338 103 -173 197 -325 208 -338 27 -29
77 -29 104 0 11 13 78 120 148 238 71 118 149 246 172 285 50 80 55 120 20
153 -23 22 -28 22 -274 20 l-251 -3 42 -72 41 -72 127 -3 127 -3 -95 -160
c-53 -88 -99 -164 -104 -168 -4 -5 -74 102 -155 237 l-148 246 -89 0 -90 0 14
-22z"/>
</g>
</svg>
